STARTFONT 2.1
COMMENT
COMMENT Converted from OpenType font "atarian.ttf" by "bdf 3.0".
COMMENT
FONT -FreeType-SF Atarian System Extended-Bold-R-Normal--66-480-100-100-P-315-ISO10646-1
SIZE 48 100 100
FONTBOUNDINGBOX 79 60 -3 -9
STARTPROPERTIES 19
FOUNDRY "FreeType"
FAMILY_NAME "SF Atarian System Extended"
WEIGHT_NAME "Bold"
SLANT "R"
SETWIDTH_NAME "Normal"
ADD_STYLE_NAME ""
PIXEL_SIZE 66
POINT_SIZE 480
RESOLUTION_X 100
RESOLUTION_Y 100
SPACING "P"
AVERAGE_WIDTH 315
CHARSET_REGISTRY "ISO10646"
CHARSET_ENCODING "1"
FONT_ASCENT 55
FONT_DESCENT 11
COPYRIGHT "Created by ShyWedge, 1999.  (http://welcome.to/ShyFonts)"
_OTF_FONTFILE "atarian.ttf"
_OTF_PSNAME "SFAtarianSystemExtendedBold"
ENDPROPERTIES
CHARS 103
STARTCHAR 0020
ENCODING 32
SWIDTH 375 0
DWIDTH 25 0
BBX 0 0 0 0
BITMAP
ENDCHAR
STARTCHAR 0021
ENCODING 33
SWIDTH 285 0
DWIDTH 19 0
BBX 11 46 4 -1
BITMAP
FFE0
FFE0
FFE0
FFE0
FFE0
FFE0
FFE0
FFE0
FFE0
FFE0
FFE0
FFE0
FFE0
FFE0
FFE0
FFE0
FFE0
FFE0
FFE0
FFE0
FFE0
FFE0
FFE0
FFE0
FFE0
FFE0
FFE0
FFE0
FFE0
FFE0
FFE0
FFE0
FFE0
FFE0
FFE0
FFE0
0000
0000
FFE0
FFE0
FFE0
FFE0
FFE0
FFE0
FFE0
FFE0
ENDCHAR
STARTCHAR 0022
ENCODING 34
SWIDTH 480 0
DWIDTH 32 0
BBX 24 15 4 29
BITMAP
FFE7FF
FFE7FF
FFE7FF
FFE7FF
FFE7FF
FFE7FF
FFE7FF
FFE7FF
1FC0FE
3F01F8
7E03F0
F807C0
F00780
C00600
800400
ENDCHAR
STARTCHAR 0023
ENCODING 35
SWIDTH 660 0
DWIDTH 44 0
BBX 38 44 3 0
BITMAP
1FF1023FE0
3FF1023FF0
7FF1023FF8
FFF1023FFC
FFF1023FFC
FFF1023FFC
FFF1023FFC
FFF1023FFC
FFF1023FFC
FFF1023FFC
FFF1023FFC
FFF1023FFC
FFF1023FFC
FFF1023FFC
FFF1023FFC
FFF1023FFC
FFF1023FFC
FFE1021FFC
FFE1021FFC
FFE3021FFC
FFE3031FFC
FFE3031FFC
FFE3031FFC
FFC3030FFC
FFC3030FFC
FFC3030FFC
FF870387FC
FF870387FC
FF070383FC
FF0703C3FC
FE0F03C1FC
FC0F03C0FC
FC1F03E0FC
F01F03E03C
E03F03F01C
C03F03F004
007F03F800
00FF03FC00
01FF03FE00
03FF03FF00
07FF03FF80
1FFF03FFE0
3FFF03FFF0
1FFF03FFE0
ENDCHAR
STARTCHAR 0024
ENCODING 36
SWIDTH 555 0
DWIDTH 37 0
BBX 29 46 4 -1
BITMAP
003FE000
003FE000
003FE000
003FE000
003FE000
007FF800
03FFFE00
07FFFF00
1FFFFF80
3FFFFFE0
7FFFFFE0
7FF07FF0
FFE03FF0
FFC01FF8
FF800FF8
FF800FF8
FF800000
FF800000
7FC00000
7FF00000
3FFFE000
1FFFFC00
0FFFFF00
07FFFF80
01FFFFC0
007FFFE0
0001FFF0
00003FF0
00001FF8
00000FF8
00000FF8
FF800FF8
FF801FF8
FFC01FF8
7FF07FF0
7FFFFFF0
3FFFFFE0
1FFFFFC0
07FFFF00
03FFFE00
00FFF800
003FE000
003FE000
003FE000
003FE000
003FE000
ENDCHAR
STARTCHAR 0025
ENCODING 37
SWIDTH 1140 0
DWIDTH 76 0
BBX 69 56 4 -6
BITMAP
00000000001C000000
00000000001FC00000
00000000003FFC0000
00000000003FF80000
00000000007FF80000
001FE000007FF00000
00FFFC0000FFF00000
03FFFF0000FFE00000
0FFFFFC001FFE00000
1FFFFFE003FFC00000
3FFFFFF003FFC00000
7FFCFFF807FF800000
7FE01FF807FF800000
FFC00FFC0FFF000000
FF8007FC0FFF000000
FF8007FC1FFE000000
FF8007FC1FFE000000
FF8007FC3FFC000000
FF8007FC3FF8000000
FF8007FC7FF8000000
FF8007FC7FF0000000
FF8007FCFFF0000000
FFC00FFCFFE0000000
7FE01FF9FFE0000000
7FFCFFFBFFC0000000
3FFFFFF3FFC0000000
1FFFFFE7FF80FFF000
0FFFFFC7FF83FFFC00
03FFFF0FFF0FFFFF00
00FFFC0FFF3FFFFFC0
001FE01FFE7FFFFFE0
0000001FFEFFFFFFE0
0000003FFCFFE07FF0
0000003FF9FF801FF8
0000007FF9FF000FF8
0000007FF1FF000FF8
000000FFF1FF000FF8
000000FFE1FF000FF8
000001FFE1FF000FF8
000003FFC1FF000FF8
000003FFC1FF000FF8
000007FF81FF000FF8
000007FF81FF801FF8
00000FFF00FFC03FF0
00000FFF00FFF9FFF0
00001FFE007FFFFFE0
00001FFE003FFFFFC0
00003FFC001FFFFF80
00003FF80007FFFE00
00007FF80001FFF800
00007FF000003FC000
0000FFF00000000000
0000FFE00000000000
0001FFE00000000000
00001FC00000000000
000001C00000000000
ENDCHAR
STARTCHAR 0026
ENCODING 38
SWIDTH 555 0
DWIDTH 37 0
BBX 30 46 4 -1
BITMAP
003FE000
003FE000
003FE000
003FE000
003FE000
007FF800
03FFFE00
07FFFF80
1FFFFFC0
3FFFFFE0
3FFFFFF0
7FF07FF8
FFC01FF8
FF800FF8
FF800FFC
FF8007FC
FF800000
FFC00000
7FC00000
7FF00000
3FFFE000
3FFFE000
1FFFE000
0FFFE000
1FFFE000
3FFFE000
7FFFC000
7FE00000
FFC00000
FF800000
FF800000
FF8007FC
FFC00FFC
FFC01FF8
7FF07FF8
7FFFFFF0
3FFFFFE0
1FFFFFC0
07FFFF80
03FFFE00
00FFF800
003FE000
003FE000
003FE000
003FE000
003FE000
ENDCHAR
STARTCHAR 0027
ENCODING 39
SWIDTH 285 0
DWIDTH 19 0
BBX 11 15 4 29
BITMAP
FFE0
FFE0
FFE0
FFE0
FFE0
FFE0
FFE0
FFE0
1FC0
3F00
7E00
F800
F000
C000
8000
ENDCHAR
STARTCHAR 0028
ENCODING 40
SWIDTH 405 0
DWIDTH 27 0
BBX 19 57 4 -6
BITMAP
001FE0
003FC0
003FC0
007F80
00FF80
01FF00
01FF00
03FE00
07FE00
07FC00
0FFC00
0FF800
1FF800
1FF800
1FF000
3FF000
3FF000
3FE000
7FE000
7FE000
7FE000
7FE000
FFC000
FFC000
FFC000
FFC000
FFC000
FFC000
FFC000
FFC000
FFC000
FFC000
FFC000
FFC000
FFC000
7FE000
7FE000
7FE000
7FE000
3FE000
3FF000
3FF000
1FF000
1FF800
1FF800
0FF800
0FFC00
07FC00
07FE00
03FE00
01FF00
01FF00
00FF80
007F80
003FC0
003FC0
001FE0
ENDCHAR
STARTCHAR 0029
ENCODING 41
SWIDTH 405 0
DWIDTH 27 0
BBX 19 57 4 -6
BITMAP
FF0000
FF8000
7F8000
3FC000
3FE000
1FF000
1FF000
0FF800
0FFC00
07FC00
07FE00
03FE00
03FF00
03FF00
01FF00
01FF80
01FF80
00FF80
00FFC0
00FFC0
00FFC0
00FFC0
007FE0
007FE0
007FE0
007FE0
007FE0
007FE0
007FE0
007FE0
007FE0
007FE0
007FE0
007FE0
007FE0
00FFC0
00FFC0
00FFC0
00FFC0
00FF80
01FF80
01FF80
01FF00
03FF00
03FF00
03FE00
07FE00
07FC00
0FFC00
0FF800
1FF000
1FF000
3FE000
3FC000
7F8000
7F8000
FF0000
ENDCHAR
STARTCHAR 002A
ENCODING 42
SWIDTH 855 0
DWIDTH 57 0
BBX 51 44 3 0
BITMAP
000039F7000000
000039F7000000
000039F7000000
000039F7000000
000039F7000000
000039F7000000
000039F7000000
000039F7000000
000039F7000000
000039F7000000
000039F7000000
000039F7000000
000039F7000000
000039F7000000
000039F7000000
000039F7000000
000039F7800000
000079F7800000
000079F7800000
000079F7800000
000079F7800000
000071F7800000
000071F3C00000
0000F1F3C00000
0000F1F3C00000
0000F1F3C00000
0001E1F1E00000
0001E1F1E00000
0001E1F1F00000
0003E1F1F00000
0007C1F0F80000
0007C1F0FC0000
000F81F07C0000
001F81F07E0000
003F01F03F8000
00FF01F01FC000
03FE01F01FF000
7FFC01F00FFFC0
FFF801F007FFE0
FFF001F003FFE0
FFE001F001FFE0
FFC001F0007FE0
FF0001F0001FE0
F80001F00003E0
ENDCHAR
STARTCHAR 002B
ENCODING 43
SWIDTH 510 0
DWIDTH 34 0
BBX 26 18 4 13
BITMAP
00FF8000
00FF8000
00FF8000
00FF8000
00FF8000
00FF8000
FFFFFFC0
FFFFFFC0
FFFFFFC0
FFFFFFC0
FFFFFFC0
FFFFFFC0
00FF8000
00FF8000
00FF8000
00FF8000
00FF8000
00FF8000
ENDCHAR
STARTCHAR 002C
ENCODING 44
SWIDTH 285 0
DWIDTH 19 0
BBX 11 15 4 -9
BITMAP
FFE0
FFE0
FFE0
FFE0
FFE0
FFE0
FFE0
FFE0
1FC0
3F00
7E00
F800
F000
C000
8000
ENDCHAR
STARTCHAR 002D
ENCODING 45
SWIDTH 510 0
DWIDTH 34 0
BBX 26 6 4 20
BITMAP
FFFFFFC0
FFFFFFC0
FFFFFFC0
FFFFFFC0
FFFFFFC0
FFFFFFC0
ENDCHAR
STARTCHAR 002E
ENCODING 46
SWIDTH 285 0
DWIDTH 19 0
BBX 11 8 4 -1
BITMAP
FFE0
FFE0
FFE0
FFE0
FFE0
FFE0
FFE0
FFE0
ENDCHAR
STARTCHAR 002F
ENCODING 47
SWIDTH 555 0
DWIDTH 37 0
BBX 39 56 -1 -6
BITMAP
0000000E00
0000000FE0
0000001FFE
0000001FFE
0000003FFC
0000003FF8
0000007FF8
0000007FF0
000000FFF0
000000FFE0
000001FFE0
000003FFC0
000003FFC0
000007FF80
000007FF80
00000FFF00
00000FFF00
00001FFE00
00001FFC00
00003FFC00
00003FF800
00007FF800
00007FF000
0000FFF000
0000FFE000
0001FFE000
0003FFC000
0003FFC000
0007FF8000
0007FF8000
000FFF0000
000FFF0000
001FFE0000
001FFC0000
003FFC0000
003FF80000
007FF80000
007FF00000
00FFF00000
01FFE00000
01FFE00000
03FFC00000
03FFC00000
07FF800000
07FF800000
0FFF000000
0FFE000000
1FFE000000
1FFC000000
3FFC000000
3FF8000000
7FF8000000
FFF0000000
3FF0000000
03E0000000
0020000000
ENDCHAR
STARTCHAR 0030
ENCODING 48
SWIDTH 585 0
DWIDTH 39 0
BBX 37 46 1 -1
BITMAP
0003FE0000
003FFFE000
00FFFFF800
03FFFFFE00
07FFFFFF00
1FFFFFFF80
3FFFFFFFC0
3FFFFFFFE0
7FFF07FFF0
7FF800FFF0
FFF0007FF8
FFE0003FF8
FFE0003FF8
FFE0003FF8
FFE0003FF8
FFE0003FF8
FFE0003FF8
FFE0003FF8
FFE0003FF8
FFE0003FF8
FFE0003FF8
FFE0003FF8
FFE0003FF8
FFE0003FF8
FFE0003FF8
FFE0003FF8
FFE0003FF8
FFE0003FF8
FFE0003FF8
FFE0003FF8
FFE0003FF8
FFE0003FF8
FFE0003FF8
FFE0003FF8
FFE0003FF8
FFF0007FF8
7FF800FFF0
7FFE03FFF0
3FFFFFFFE0
3FFFFFFFE0
1FFFFFFFC0
07FFFFFF00
03FFFFFE00
00FFFFF800
003FFFE000
0003FE0000
ENDCHAR
STARTCHAR 0031
ENCODING 49
SWIDTH 285 0
DWIDTH 19 0
BBX 11 46 4 -1
BITMAP
FFE0
FFE0
FFE0
FFE0
FFE0
FFE0
FFE0
FFE0
FFE0
FFE0
FFE0
FFE0
FFE0
FFE0
FFE0
FFE0
FFE0
FFE0
FFE0
FFE0
FFE0
FFE0
FFE0
FFE0
FFE0
FFE0
FFE0
FFE0
FFE0
FFE0
FFE0
FFE0
FFE0
FFE0
FFE0
FFE0
FFE0
FFE0
FFE0
FFE0
FFE0
FFE0
FFE0
FFE0
FFE0
FFE0
ENDCHAR
STARTCHAR 0032
ENCODING 50
SWIDTH 675 0
DWIDTH 45 0
BBX 37 46 4 -1
BITMAP
0003FE0000
003FFFC000
00FFFFF800
03FFFFFE00
07FFFFFF00
0FFFFFFF80
1FFFFFFFC0
3FFFFFFFE0
7FFF07FFF0
7FFC00FFF0
FFF8007FF8
FFF0003FF8
FFE0003FF8
FFE0003FF8
0000003FF8
0000003FF8
0000007FF8
000000FFF0
000001FFF0
000007FFF0
00001FFFE0
0000FFFFC0
0003FFFF80
001FFFFF00
007FFFFE00
01FFFFF800
07FFFFE000
0FFFFF0000
1FFFFC0000
3FFFE00000
7FFF800000
7FFE000000
7FF8000000
FFF0000000
FFE0000000
FFE0000000
FFE0000000
FFE0000000
FFFFFFFFF8
FFFFFFFFF8
FFFFFFFFF8
FFFFFFFFF8
FFFFFFFFF8
FFFFFFFFF8
FFFFFFFFF8
FFFFFFFFF8
ENDCHAR
STARTCHAR 0033
ENCODING 51
SWIDTH 675 0
DWIDTH 45 0
BBX 37 46 4 -1
BITMAP
0003FE0000
003FFFE000
00FFFFF800
03FFFFFE00
07FFFFFF00
0FFFFFFF80
1FFFFFFFC0
3FFFFFFFE0
7FFF07FFF0
7FFC00FFF0
FFF8007FF8
FFF0003FF8
FFE0003FF8
FFE0003FF8
0000003FF8
0000007FF8
0000007FF8
000000FFF0
000007FFF0
0003FFFFE0
0003FFFFC0
0003FFFF80
0003FFFF00
0003FFFF00
0003FFFF80
0003FFFFC0
0003FFFFE0
000007FFF0
000000FFF0
0000007FF0
0000003FF8
0000003FF8
0000003FF8
FFE0003FF8
FFE0007FF8
FFF0007FF8
7FF800FFF0
7FFE07FFF0
3FFFFFFFE0
3FFFFFFFE0
1FFFFFFFC0
0FFFFFFF00
03FFFFFE00
00FFFFF800
003FFFE000
0003FE0000
ENDCHAR
STARTCHAR 0034
ENCODING 52
SWIDTH 705 0
DWIDTH 47 0
BBX 39 46 4 -1
BITMAP
FFE0000FFE
FFE0000FFE
FFE0000FFE
FFE0000FFE
FFE0000FFE
FFE0000FFE
FFE0000FFE
FFE0000FFE
FFE0000FFE
FFE0000FFE
FFE0000FFE
FFE0000FFE
FFE0000FFE
FFE0000FFE
FFE0000FFE
FFE0000FFE
FFE0000FFE
FFE0000FFE
FFE0000FFE
FFE0000FFE
FFE0000FFE
FFE0000FFE
FFE0000FFE
7FF0000FFE
7FFC000FFE
3FFF000FFE
3FFFE00FFE
1FFFFF0FFE
07FFFFFFFE
03FFFFFFFE
00FFFFFFFE
003FFFFFFE
0007FFFFFE
0000FFFFFE
00000FFFFE
0000003FFE
0000000FFE
0000000FFE
0000000FFE
0000000FFE
0000000FFE
0000000FFE
0000000FFE
0000000FFE
0000000FFE
0000000FFE
ENDCHAR
STARTCHAR 0035
ENCODING 53
SWIDTH 675 0
DWIDTH 45 0
BBX 37 46 4 -1
BITMAP
7FFFFFFF80
7FFFFFFF80
7FFFFFFF80
7FFFFFFF80
7FFFFFFF80
7FFFFFFF80
7FFFFFFF80
7FFFFFFF80
7FF0000000
7FF0000000
7FE0000000
7FE0000000
7FE0000000
7FE0000000
7FE3FE0000
7FFFFFE000
7FFFFFF800
7FFFFFFE00
7FFFFFFF00
7FFFFFFF80
7FFFFFFFC0
7FFFFFFFE0
7FFE07FFF0
7FF800FFF0
7FF0007FF8
7FF0003FF8
7FE0003FF8
0000003FF8
0000003FF8
0000003FF8
0000003FF8
0000003FF8
0000003FF8
FFE0003FF8
FFE0003FF8
FFF0007FF8
7FF800FFF0
7FFE03FFF0
3FFFFFFFE0
3FFFFFFFE0
1FFFFFFFC0
0FFFFFFF00
03FFFFFE00
00FFFFF800
003FFFE000
0003FE0000
ENDCHAR
STARTCHAR 0036
ENCODING 54
SWIDTH 675 0
DWIDTH 45 0
BBX 37 46 4 -1
BITMAP
0003FE0000
003FFFE000
00FFFFF800
03FFFFFE00
07FFFFFF00
1FFFFFFF80
3FFFFFFFC0
3FFFFFFFE0
7FFF07FFF0
7FF801FFF0
FFF000FFF0
FFE0007FF8
FFE0003FF8
FFE0003FF8
FFE0000000
FFE0000000
FFE0000000
FFE3FE0000
FFFFFFE000
FFFFFFF800
FFFFFFFE00
FFFFFFFF00
FFFFFFFFC0
FFFFFFFFE0
FFFFFFFFE0
FFFE03FFF0
FFF800FFF0
FFF0007FF8
FFE0003FF8
FFE0003FF8
FFE0003FF8
FFE0003FF8
FFE0003FF8
FFE0003FF8
FFE0003FF8
FFF0007FF8
7FF800FFF0
7FFE03FFF0
3FFFFFFFE0
3FFFFFFFE0
1FFFFFFFC0
07FFFFFF00
03FFFFFE00
00FFFFF800
003FFFE000
0003FE0000
ENDCHAR
STARTCHAR 0037
ENCODING 55
SWIDTH 585 0
DWIDTH 39 0
BBX 34 46 4 -1
BITMAP
FFFFFFFC00
FFFFFFFF00
FFFFFFFF80
FFFFFFFFC0
FFFFFFFFC0
FFFFFFFFC0
FFFFFFFFC0
FFFFFFFF80
000003FF80
000007FF00
000007FF00
00000FFE00
00000FFE00
00001FFC00
00003FFC00
00003FF800
00007FF000
00007FF000
0000FFE000
0000FFE000
0001FFC000
0001FFC000
0003FF8000
0003FF8000
0007FF0000
000FFF0000
000FFE0000
001FFC0000
001FFC0000
003FF80000
003FF80000
007FF00000
007FF00000
00FFE00000
00FFE00000
01FFC00000
03FFC00000
03FF800000
07FF000000
07FF000000
0FFE000000
0FFE000000
1FFC000000
1FFC000000
3FF8000000
3FF8000000
ENDCHAR
STARTCHAR 0038
ENCODING 56
SWIDTH 675 0
DWIDTH 45 0
BBX 37 46 4 -1
BITMAP
0003FE0000
003FFFE000
00FFFFF800
03FFFFFE00
07FFFFFF00
1FFFFFFFC0
3FFFFFFFE0
3FFFFFFFE0
7FFF07FFF0
7FFC01FFF0
FFF0007FF8
FFF0007FF8
FFE0003FF8
FFE0003FF8
FFE0003FF8
FFE0003FF8
7FF0007FF8
7FF800FFF0
7FFE03FFF0
3FFFFFFFE0
1FFFFFFFC0
0FFFFFFF80
07FFFFFF00
07FFFFFF00
0FFFFFFF80
1FFFFFFFC0
3FFFFFFFE0
7FFF07FFF0
7FF800FFF0
FFF0007FF0
FFE0003FF8
FFE0003FF8
FFE0003FF8
FFE0003FF8
FFF0007FF8
FFF0007FF8
7FFC01FFF0
7FFF07FFF0
3FFFFFFFE0
3FFFFFFFE0
1FFFFFFFC0
07FFFFFF00
03FFFFFE00
00FFFFF800
003FFFE000
0003FE0000
ENDCHAR
STARTCHAR 0039
ENCODING 57
SWIDTH 675 0
DWIDTH 45 0
BBX 37 46 4 -1
BITMAP
0003FE0000
003FFFE000
00FFFFF800
03FFFFFE00
07FFFFFF00
0FFFFFFF80
1FFFFFFFC0
3FFFFFFFE0
7FFF07FFF0
7FF800FFF0
FFF0007FF8
FFE0003FF8
FFE0003FF8
FFE0003FF8
FFE0003FF8
FFE0003FF8
FFE0003FF8
FFE0003FF8
FFE0003FF8
FFF0007FF8
7FF800FFF8
7FFF07FFF8
3FFFFFFFF8
1FFFFFFFF8
0FFFFFFFF8
07FFFFFFF8
03FFFFFFF8
00FFFFFFF8
003FFFFFF8
0003FE3FF8
0000003FF8
0000003FF8
0000003FF8
FFE0003FF8
FFE0003FF8
FFF0007FF8
7FF800FFF0
7FFE03FFF0
3FFFFFFFE0
3FFFFFFFE0
1FFFFFFFC0
0FFFFFFF00
03FFFFFE00
00FFFFF800
003FFFE000
0007FE0000
ENDCHAR
STARTCHAR 003A
ENCODING 58
SWIDTH 285 0
DWIDTH 19 0
BBX 11 34 4 -1
BITMAP
FFE0
FFE0
FFE0
FFE0
FFE0
FFE0
FFE0
FFE0
0000
0000
0000
0000
0000
0000
0000
0000
0000
0000
0000
0000
0000
0000
0000
0000
0000
0000
FFE0
FFE0
FFE0
FFE0
FFE0
FFE0
FFE0
FFE0
ENDCHAR
STARTCHAR 003B
ENCODING 59
SWIDTH 285 0
DWIDTH 19 0
BBX 11 41 4 -9
BITMAP
FFE0
FFE0
FFE0
FFE0
FFE0
FFE0
FFE0
FFE0
0000
0000
0000
0000
0000
0000
0000
0000
0000
0000
0000
0000
0000
0000
0000
0000
0000
0000
FFE0
FFE0
FFE0
FFE0
FFE0
FFE0
FFE0
FFE0
1FC0
3F00
7E00
F800
F000
C000
8000
ENDCHAR
STARTCHAR 003C
ENCODING 60
SWIDTH 450 0
DWIDTH 30 0
BBX 23 34 4 5
BITMAP
003FFE
003FFE
007FFC
00FFF8
00FFF0
01FFF0
03FFE0
07FFC0
07FF80
0FFF80
1FFF00
3FFE00
3FFC00
7FFC00
FFF800
FFF000
FFE000
FFE000
FFF000
FFF800
7FFC00
3FFC00
3FFE00
1FFF00
0FFF80
07FF80
07FFC0
03FFE0
01FFF0
00FFF0
00FFF8
007FFC
003FFE
003FFE
ENDCHAR
STARTCHAR 003D
ENCODING 61
SWIDTH 630 0
DWIDTH 42 0
BBX 34 17 4 14
BITMAP
FFFFFFFFC0
FFFFFFFFC0
FFFFFFFFC0
FFFFFFFFC0
FFFFFFFFC0
FFFFFFFFC0
0000000000
0000000000
0000000000
0000000000
0000000000
FFFFFFFFC0
FFFFFFFFC0
FFFFFFFFC0
FFFFFFFFC0
FFFFFFFFC0
FFFFFFFFC0
ENDCHAR
STARTCHAR 003E
ENCODING 62
SWIDTH 450 0
DWIDTH 30 0
BBX 23 34 4 5
BITMAP
FFF000
FFF800
7FFC00
3FFE00
1FFE00
1FFF00
0FFF80
07FFC0
03FFC0
03FFE0
01FFF0
00FFF8
007FF8
007FFC
003FFC
001FFE
000FFE
000FFE
001FFE
003FFE
007FFC
007FF8
00FFF8
01FFF0
03FFE0
03FFC0
07FFC0
0FFF80
1FFF00
1FFE00
3FFE00
7FFC00
FFF800
FFF800
ENDCHAR
STARTCHAR 003F
ENCODING 63
SWIDTH 675 0
DWIDTH 45 0
BBX 37 46 4 -1
BITMAP
0003FE0000
003FFFE000
00FFFFF800
03FFFFFE00
07FFFFFF00
0FFFFFFF80
1FFFFFFFC0
3FFFFFFFE0
7FFF07FFF0
7FFC00FFF0
7FF8007FF8
FFF0003FF8
FFE0003FF8
FFE0003FF8
0000003FF8
0000003FF8
0000003FF8
0000003FF8
0000003FF8
FFE0003FF8
FFE0003FF8
FFF0007FF8
FFF800FFF0
FFFE03FFF0
FFFFFFFFE0
FFFFFFFFE0
FFFFFFFFC0
FFFFFFFF00
FFFFFFFE00
FFFFFFF800
FFFFFFE000
FFE3FE0000
FFE0000000
FFE0000000
FFE0000000
FFE0000000
FFE0000000
0000000000
FFE0000000
FFE0000000
FFE0000000
FFE0000000
FFE0000000
FFE0000000
FFE0000000
FFE0000000
ENDCHAR
STARTCHAR 0040
ENCODING 64
SWIDTH 600 0
DWIDTH 40 0
BBX 35 44 2 0
BITMAP
0006F60000
0006F60000
0006F60000
0006F60000
0006F60000
0006F60000
0006F60000
0006F60000
0006F60000
0006F60000
0006F60000
0006F70000
000EF70000
000EF70000
000EF70000
000EF70000
000CF30000
001CF38000
001CF38000
003CF1C000
0038F1C000
0078F1E000
00F0F0F000
01F0F0F800
0FE0F07E00
7FC0F03FE0
7F80F01FE0
7E00F007E0
7800F001E0
0000000000
0000000000
0CFE61F8C0
0EFE71FCC0
1E18F186C0
1E18F186C0
1F18D986C0
3319D99CC0
331999B8C0
331999B0C0
7F9BFDB0C0
7F9BFDB8C0
619B0D9CC0
61DB078CC0
C0DE0786C0
ENDCHAR
STARTCHAR 0041
ENCODING 65
SWIDTH 645 0
DWIDTH 43 0
BBX 49 46 -3 -1
BITMAP
000003E0000000
00000FF8000000
00001FFC000000
00003FFE000000
00007FFF000000
00007FFF000000
0000FFFF800000
0000FFFF800000
0000FFFF800000
0001FFFFC00000
0001FFFFC00000
0003FFFFE00000
0003FFFFE00000
0007FFFFE00000
0007FF7FF00000
0007FF7FF00000
000FFF7FF80000
000FFE3FF80000
001FFE3FF80000
001FFC1FFC0000
001FFC1FFC0000
003FFC1FFE0000
003FF80FFE0000
007FF80FFF0000
007FF007FF0000
007FF007FF0000
00FFF007FF8000
00FFE003FF8000
01FFFFFFFFC000
01FFFFFFFFC000
03FFFFFFFFC000
03FFFFFFFFE000
03FFFFFFFFE000
07FFFFFFFFF000
07FFFFFFFFF000
0FFFFFFFFFF000
0FFE00007FF800
0FFE00003FF800
1FFE00003FFC00
1FFC00001FFC00
3FFC00001FFC00
3FF800000FFE00
3FF800000FFE00
7FF800000FFF00
7FF0000007FF00
FFF0000007FF80
ENDCHAR
STARTCHAR 0042
ENCODING 66
SWIDTH 705 0
DWIDTH 47 0
BBX 41 46 4 -1
BITMAP
0FFFFE000000
3FFFFFE00000
7FFFFFF80000
FFFFFFFE0000
FFFFFFFF0000
FFFFFFFFC000
FFFFFFFFE000
FFFFFFFFE000
FFE007FFF000
FFE000FFF000
FFE0007FF800
FFE0003FF800
FFE0003FF800
FFE0003FF800
FFE0003FF800
FFE0007FF000
FFE000FFF000
FFE003FFE000
FFE00FFFE000
FFE0FFFFC000
FFFFFFFF0000
FFFFFFFE0000
FFFFFFFF8000
FFFFFFFFC000
FFFFFFFFF000
FFFFFFFFF800
FFFFFFFFFC00
FFFFFFFFFE00
FFE0003FFF00
FFE0000FFF00
FFE00007FF80
FFE00003FF80
FFE00003FF80
FFE00003FF80
FFE00003FF80
FFE00007FF80
FFE0000FFF00
FFE0007FFF00
FFFFFFFFFE00
FFFFFFFFFE00
FFFFFFFFFC00
FFFFFFFFF000
FFFFFFFFE000
7FFFFFFF8000
3FFFFFFE0000
0FFFFFE00000
ENDCHAR
STARTCHAR 0043
ENCODING 67
SWIDTH 675 0
DWIDTH 45 0
BBX 37 46 4 -1
BITMAP
0003FE0000
003FFFE000
00FFFFF800
03FFFFFE00
07FFFFFF00
1FFFFFFF80
3FFFFFFFC0
3FFFFFFFE0
7FFF07FFF0
7FFC01FFF0
FFF0007FF0
FFE0007FF8
FFE0003FF8
FFE0003FF8
FFE0000000
FFE0000000
FFE0000000
FFE0000000
FFE0000000
FFE0000000
FFE0000000
FFE0000000
FFE0000000
FFE0000000
FFE0000000
FFE0000000
FFE0000000
FFE0000000
FFE0000000
FFE0000000
FFE0000000
FFE0000000
FFE0000000
FFE0003FF8
FFE0003FF8
FFF0007FF8
7FF800FFF0
7FFE03FFF0
3FFFFFFFE0
3FFFFFFFE0
1FFFFFFFC0
07FFFFFF00
03FFFFFE00
00FFFFF800
003FFFE000
0003FE0000
ENDCHAR
STARTCHAR 0044
ENCODING 68
SWIDTH 675 0
DWIDTH 45 0
BBX 37 46 4 -1
BITMAP
FFFFFE0000
FFFFFFE000
FFFFFFF800
FFFFFFFE00
FFFFFFFF00
FFFFFFFFC0
FFFFFFFFC0
FFFFFFFFE0
FFE007FFF0
FFE000FFF0
FFE0007FF8
FFE0003FF8
FFE0003FF8
FFE0003FF8
FFE0003FF8
FFE0003FF8
FFE0003FF8
FFE0003FF8
FFE0003FF8
FFE0003FF8
FFE0003FF8
FFE0003FF8
FFE0003FF8
FFE0003FF8
FFE0003FF8
FFE0003FF8
FFE0003FF8
FFE0003FF8
FFE0003FF8
FFE0003FF8
FFE0003FF8
FFE0003FF8
FFE0003FF8
FFE0003FF8
FFE0003FF8
FFE0007FF8
FFE000FFF0
FFE007FFF0
FFFFFFFFE0
FFFFFFFFE0
FFFFFFFFC0
FFFFFFFF00
FFFFFFFE00
FFFFFFF800
FFFFFFE000
FFFFFE0000
ENDCHAR
STARTCHAR 0045
ENCODING 69
SWIDTH 615 0
DWIDTH 41 0
BBX 33 46 4 -1
BITMAP
0FFFFFFF80
3FFFFFFF80
7FFFFFFF80
FFFFFFFF80
FFFFFFFF80
FFFFFFFF80
FFFFFFFF80
FFFFFFFF80
FFE0000000
FFE0000000
FFE0000000
FFE0000000
FFE0000000
FFE0000000
FFE0000000
FFE0000000
FFE0000000
FFE0000000
FFE0000000
FFFFFF8000
FFFFFF8000
FFFFFF8000
FFFFFF8000
FFFFFF8000
FFFFFF8000
FFFFFF8000
FFFFFF8000
FFE0000000
FFE0000000
FFE0000000
FFE0000000
FFE0000000
FFE0000000
FFE0000000
FFE0000000
FFE0000000
FFE0000000
FFE0000000
FFFFFFFF80
FFFFFFFF80
FFFFFFFF80
FFFFFFFF80
FFFFFFFF80
7FFFFFFF80
3FFFFFFF80
0FFFFFFF80
ENDCHAR
STARTCHAR 0046
ENCODING 70
SWIDTH 585 0
DWIDTH 39 0
BBX 33 46 4 -1
BITMAP
0FFFFFFF80
3FFFFFFF80
7FFFFFFF80
FFFFFFFF80
FFFFFFFF80
FFFFFFFF80
FFFFFFFF80
FFFFFFFF80
FFE0000000
FFE0000000
FFE0000000
FFE0000000
FFE0000000
FFE0000000
FFE0000000
FFE0000000
FFE0000000
FFE0000000
FFE0000000
FFFFFF8000
FFFFFF8000
FFFFFF8000
FFFFFF8000
FFFFFF8000
FFFFFF8000
FFFFFF8000
FFFFFF8000
FFE0000000
FFE0000000
FFE0000000
FFE0000000
FFE0000000
FFE0000000
FFE0000000
FFE0000000
FFE0000000
FFE0000000
FFE0000000
FFE0000000
FFE0000000
FFE0000000
FFE0000000
FFE0000000
FFE0000000
FFE0000000
FFE0000000
ENDCHAR
STARTCHAR 0047
ENCODING 71
SWIDTH 675 0
DWIDTH 45 0
BBX 37 46 4 -1
BITMAP
0003FE0000
003FFFE000
00FFFFF800
03FFFFFE00
07FFFFFF00
1FFFFFFF80
3FFFFFFFC0
3FFFFFFFE0
7FFF07FFF0
7FF801FFF0
FFF000FFF0
FFE0007FF8
FFE0003FF8
FFE0003FF8
FFE0000000
FFE0000000
FFE0000000
FFE0000000
FFE0000000
FFE03FFF80
FFE03FFFE0
FFE03FFFF0
FFE03FFFF8
FFE03FFFF8
FFE03FFFF8
FFE03FFFF8
FFE03FFFF8
FFE0003FF8
FFE0003FF8
FFE0003FF8
FFE0003FF8
FFE0003FF8
FFE0003FF8
FFE0003FF8
FFE0003FF8
FFF0007FF8
7FF800FFF8
7FFE07FFF8
3FFFFFFFF8
3FFFFFFFF8
1FFFFFFFF8
07FFFFFFF8
03FFFFFFF8
00FFFFFFF8
003FFFFFF8
0003FE3FF8
ENDCHAR
STARTCHAR 0048
ENCODING 72
SWIDTH 675 0
DWIDTH 45 0
BBX 37 46 4 -1
BITMAP
FFE0003FF8
FFE0003FF8
FFE0003FF8
FFE0003FF8
FFE0003FF8
FFE0003FF8
FFE0003FF8
FFE0003FF8
FFE0003FF8
FFE0003FF8
FFE0003FF8
FFE0003FF8
FFE0003FF8
FFE0003FF8
FFE0003FF8
FFE0003FF8
FFE0003FF8
FFE0003FF8
FFE0003FF8
FFFFFFFFF8
FFFFFFFFF8
FFFFFFFFF8
FFFFFFFFF8
FFFFFFFFF8
FFFFFFFFF8
FFFFFFFFF8
FFFFFFFFF8
FFE0003FF8
FFE0003FF8
FFE0003FF8
FFE0003FF8
FFE0003FF8
FFE0003FF8
FFE0003FF8
FFE0003FF8
FFE0003FF8
FFE0003FF8
FFE0003FF8
FFE0003FF8
FFE0003FF8
FFE0003FF8
FFE0003FF8
FFE0003FF8
FFE0003FF8
FFE0003FF8
FFE0003FF8
ENDCHAR
STARTCHAR 0049
ENCODING 73
SWIDTH 285 0
DWIDTH 19 0
BBX 11 46 4 -1
BITMAP
FFE0
FFE0
FFE0
FFE0
FFE0
FFE0
FFE0
FFE0
FFE0
FFE0
FFE0
FFE0
FFE0
FFE0
FFE0
FFE0
FFE0
FFE0
FFE0
FFE0
FFE0
FFE0
FFE0
FFE0
FFE0
FFE0
FFE0
FFE0
FFE0
FFE0
FFE0
FFE0
FFE0
FFE0
FFE0
FFE0
FFE0
FFE0
FFE0
FFE0
FFE0
FFE0
FFE0
FFE0
FFE0
FFE0
ENDCHAR
STARTCHAR 004A
ENCODING 74
SWIDTH 615 0
DWIDTH 41 0
BBX 37 46 1 -1
BITMAP
0000003FF8
0000003FF8
0000003FF8
0000003FF8
0000003FF8
0000003FF8
0000003FF8
0000003FF8
0000003FF8
0000003FF8
0000003FF8
0000003FF8
0000003FF8
0000003FF8
0000003FF8
0000003FF8
0000003FF8
0000003FF8
0000003FF8
0000003FF8
0000003FF8
0000003FF8
0000003FF8
0000003FF8
0000003FF8
0000003FF8
0000003FF8
0000003FF8
FFE0003FF8
FFE0003FF8
FFE0003FF8
FFE0003FF8
FFE0003FF8
FFE0003FF8
FFE0003FF8
FFF0007FF8
7FF800FFF0
7FFE03FFF0
3FFFFFFFE0
3FFFFFFFE0
1FFFFFFFC0
07FFFFFF00
03FFFFFE00
00FFFFF800
003FFFE000
0003FE0000
ENDCHAR
STARTCHAR 004B
ENCODING 75
SWIDTH 645 0
DWIDTH 43 0
BBX 38 46 3 -1
BITMAP
FFF0003FFC
FFF0003FFC
FFF0007FF8
FFF000FFF0
FFF000FFF0
FFF001FFE0
FFF003FFC0
FFF007FF80
FFF007FF80
FFF00FFF00
FFF01FFE00
FFF01FFE00
FFF03FFC00
FFF07FF800
FFF07FF800
FFF0FFF000
FFF1FFE000
FFF3FFE000
FFF3FFC000
FFF7FF8000
FFFFFF0000
FFFFFF0000
FFFFFE0000
FFFFFE0000
FFFFFF0000
FFF7FF0000
FFF7FF8000
FFF3FFC000
FFF1FFE000
FFF1FFE000
FFF0FFF000
FFF07FF800
FFF03FF800
FFF03FFC00
FFF01FFE00
FFF00FFE00
FFF00FFF00
FFF007FF80
FFF003FF80
FFF003FFC0
FFF001FFE0
FFF000FFF0
FFF000FFF0
FFF0007FF8
FFF0003FFC
FFF0003FFC
ENDCHAR
STARTCHAR 004C
ENCODING 76
SWIDTH 585 0
DWIDTH 39 0
BBX 33 46 4 -1
BITMAP
FFE0000000
FFE0000000
FFE0000000
FFE0000000
FFE0000000
FFE0000000
FFE0000000
FFE0000000
FFE0000000
FFE0000000
FFE0000000
FFE0000000
FFE0000000
FFE0000000
FFE0000000
FFE0000000
FFE0000000
FFE0000000
FFE0000000
FFE0000000
FFE0000000
FFE0000000
FFE0000000
FFE0000000
FFE0000000
FFE0000000
FFE0000000
FFE0000000
FFE0000000
FFE0000000
FFE0000000
FFE0000000
FFE0000000
FFE0000000
FFE0000000
FFE0000000
FFE0000000
FFE0000000
FFFFFFFF80
FFFFFFFF80
FFFFFFFF80
FFFFFFFF80
FFFFFFFF80
7FFFFFFF80
3FFFFFFF80
0FFFFFFF80
ENDCHAR
STARTCHAR 004D
ENCODING 77
SWIDTH 960 0
DWIDTH 64 0
BBX 56 46 4 -1
BITMAP
0F8000000001F0
3FE000000007FC
7FF00000000FFE
FFF80000001FFF
FFF80000001FFF
FFFC0000003FFF
FFFE0000007FFF
FFFE0000007FFF
FFFF000000FFFF
FFFF000000FFFF
FFFF800001FFFF
FFFF800001FFFF
FFFFC00003FFFF
FFFFC00003FFFF
FFFFE00007FFFF
FFFFE00007FFFF
FFFFF0000FFFFF
FFFFF0000FFFFF
FFFFF8001FFFFF
FFFFF8001FFFFF
FFFFFC003FFFFF
FFFFFC003FFFFF
FFFFFE007FFFFF
FFEFFE007FF7FF
FFEFFF00FFF7FF
FFE7FF00FFE7FF
FFE7FF81FFE7FF
FFE3FF81FFC7FF
FFE3FFC3FFC7FF
FFE1FFE3FF87FF
FFE1FFE7FF87FF
FFE0FFFFFF07FF
FFE0FFFFFF07FF
FFE07FFFFE07FF
FFE07FFFFE07FF
FFE03FFFFC07FF
FFE01FFFF807FF
FFE01FFFF807FF
FFE00FFFF007FF
FFE00FFFF007FF
FFE007FFE007FF
FFE007FFE007FF
FFE003FFC007FF
FFE001FF8007FF
FFE000FF0007FF
FFE0007E0007FF
ENDCHAR
STARTCHAR 004E
ENCODING 78
SWIDTH 675 0
DWIDTH 45 0
BBX 37 46 4 -1
BITMAP
0F80003FF8
3FE0003FF8
7FF0003FF8
FFF8003FF8
FFF8003FF8
FFFC003FF8
FFFE003FF8
FFFE003FF8
FFFF003FF8
FFFF003FF8
FFFF803FF8
FFFFC03FF8
FFFFC03FF8
FFFFE03FF8
FFFFE03FF8
FFFFF03FF8
FFFFF03FF8
FFFFF83FF8
FFFFFC3FF8
FFFFFC3FF8
FFFFFE3FF8
FFEFFE3FF8
FFEFFF3FF8
FFE7FFBFF8
FFE3FFBFF8
FFE3FFFFF8
FFE1FFFFF8
FFE1FFFFF8
FFE0FFFFF8
FFE07FFFF8
FFE07FFFF8
FFE03FFFF8
FFE03FFFF8
FFE01FFFF8
FFE01FFFF8
FFE00FFFF8
FFE007FFF8
FFE007FFF8
FFE003FFF8
FFE003FFF8
FFE001FFF8
FFE000FFF8
FFE000FFF8
FFE0007FF0
FFE0003FE0
FFE0000F80
ENDCHAR
STARTCHAR 004F
ENCODING 79
SWIDTH 585 0
DWIDTH 39 0
BBX 37 46 1 -1
BITMAP
0003FE0000
003FFFE000
00FFFFF800
03FFFFFE00
07FFFFFF00
1FFFFFFF80
3FFFFFFFC0
3FFFFFFFE0
7FFF07FFF0
7FF800FFF0
FFF0007FF8
FFE0003FF8
FFE0003FF8
FFE0003FF8
FFE0003FF8
FFE0003FF8
FFE0003FF8
FFE0003FF8
FFE0003FF8
FFE0003FF8
FFE0003FF8
FFE0003FF8
FFE0003FF8
FFE0003FF8
FFE0003FF8
FFE0003FF8
FFE0003FF8
FFE0003FF8
FFE0003FF8
FFE0003FF8
FFE0003FF8
FFE0003FF8
FFE0003FF8
FFE0003FF8
FFE0003FF8
FFF0007FF8
7FF800FFF0
7FFE03FFF0
3FFFFFFFE0
3FFFFFFFE0
1FFFFFFFC0
07FFFFFF00
03FFFFFE00
00FFFFF800
003FFFE000
0003FE0000
ENDCHAR
STARTCHAR 0050
ENCODING 80
SWIDTH 705 0
DWIDTH 47 0
BBX 39 46 4 -1
BITMAP
0FFFFF8000
3FFFFFF800
7FFFFFFE00
FFFFFFFF80
FFFFFFFFC0
FFFFFFFFF0
FFFFFFFFF8
FFFFFFFFF8
FFE001FFFC
FFE0003FFC
FFE0001FFE
FFE0000FFE
FFE0000FFE
FFE0000FFE
FFE0000FFE
FFE0001FFC
FFE0003FFC
FFE000FFF8
FFE007FFF8
FFE0FFFFF0
FFFFFFFFE0
FFFFFFFF80
FFFFFFFE00
FFFFFFF800
FFFFFFE000
FFFFFF0000
FFFFF00000
FFFE000000
FFE0000000
FFE0000000
FFE0000000
FFE0000000
FFE0000000
FFE0000000
FFE0000000
FFE0000000
FFE0000000
FFE0000000
FFE0000000
FFE0000000
FFE0000000
FFE0000000
FFE0000000
FFE0000000
FFE0000000
FFE0000000
ENDCHAR
STARTCHAR 0051
ENCODING 81
SWIDTH 615 0
DWIDTH 41 0
BBX 38 50 1 -6
BITMAP
0003FE0000
003FFFE000
00FFFFF800
03FFFFFE00
07FFFFFF00
1FFFFFFF80
3FFFFFFFC0
3FFFFFFFE0
7FFF07FFF0
7FF800FFF0
FFF0007FF8
FFE0003FF8
FFE0003FF8
FFE0003FF8
FFE0003FF8
FFE0003FF8
FFE0003FF8
FFE0003FF8
FFE0003FF8
FFE0003FF8
FFE0003FF8
FFE0003FF8
FFE0003FF8
FFE0003FF8
FFE0003FF8
FFE0003FF8
FFE0003FF8
FFE0003FF8
FFE0003FF8
FFE0003FF8
FFE0003FF8
FFE0003FF8
FFE0003FF8
FFE0003FF8
FFE0003FF8
FFF0007FF8
7FF800FFF0
7FFE03FFF0
3FFFFFFFE0
1FFFFFFFC0
0FFFFFFF80
07FFFFFF80
03FFFFFFFC
00FFFFFFFC
001FFFFFFC
0001FFFFFC
00001FFFF8
000000FFF8
0000000FF0
0000000070
ENDCHAR
STARTCHAR 0052
ENCODING 82
SWIDTH 690 0
DWIDTH 46 0
BBX 41 46 4 -1
BITMAP
0FFFFF800000
3FFFFFF80000
7FFFFFFE0000
FFFFFFFF8000
FFFFFFFFC000
FFFFFFFFF000
FFFFFFFFF800
FFFFFFFFF800
FFE001FFFC00
FFE0007FFC00
FFE0001FFE00
FFE0000FFE00
FFE0000FFE00
FFE0000FFE00
FFE0000FFE00
FFE0001FFE00
FFE0003FFC00
FFE000FFFC00
FFE003FFF800
FFE01FFFF000
FFE0FFFFE000
FFE3FFFFC000
FFEFFFFF8000
FFEFFFFE0000
FFFFFFF80000
FFFFFFE00000
FFFFFE000000
FFFFFF000000
FFEFFF800000
FFEFFFC00000
FFE7FFE00000
FFE3FFF00000
FFE1FFF80000
FFE0FFFC0000
FFE07FFE0000
FFE03FFF0000
FFE01FFF0000
FFE00FFF8000
FFE007FFC000
FFE003FFE000
FFE001FFF000
FFE000FFF800
FFE0007FFC00
FFE0003FFE00
FFE0001FFF00
FFE0000FFF80
ENDCHAR
STARTCHAR 0053
ENCODING 83
SWIDTH 675 0
DWIDTH 45 0
BBX 37 46 4 -1
BITMAP
0003FE0000
003FFFE000
00FFFFF800
03FFFFFE00
07FFFFFF00
1FFFFFFF80
3FFFFFFFC0
3FFFFFFFE0
7FFF07FFF0
7FFC01FFF0
FFF000FFF0
FFF0007FF8
FFE0003FF8
FFE0003FF8
FFE0000000
FFE0000000
FFF0000000
7FF8000000
7FFE000000
3FFFFE0000
3FFFFFE000
1FFFFFF800
07FFFFFE00
03FFFFFF00
00FFFFFF80
003FFFFFC0
0003FFFFE0
000007FFF0
000000FFF0
0000007FF8
0000003FF8
0000003FF8
0000003FF8
FFE0003FF8
FFE0007FF8
FFF0007FF8
7FF800FFF0
7FFE07FFF0
3FFFFFFFE0
3FFFFFFFE0
1FFFFFFFC0
0FFFFFFF00
03FFFFFE00
00FFFFF800
003FFFE000
0007FE0000
ENDCHAR
STARTCHAR 0054
ENCODING 84
SWIDTH 555 0
DWIDTH 37 0
BBX 37 46 0 -1
BITMAP
FFFFFFFFF8
FFFFFFFFF8
FFFFFFFFF8
FFFFFFFFF8
FFFFFFFFF8
FFFFFFFFF8
FFFFFFFFF8
FFFFFFFFF8
0007FF0000
0007FF0000
0007FF0000
0007FF0000
0007FF0000
0007FF0000
0007FF0000
0007FF0000
0007FF0000
0007FF0000
0007FF0000
0007FF0000
0007FF0000
0007FF0000
0007FF0000
0007FF0000
0007FF0000
0007FF0000
0007FF0000
0007FF0000
0007FF0000
0007FF0000
0007FF0000
0007FF0000
0007FF0000
0007FF0000
0007FF0000
0007FF0000
0007FF0000
0007FF0000
0007FF0000
0007FF0000
0007FF0000
0007FF0000
0007FF0000
0007FF0000
0007FF0000
0007FF0000
ENDCHAR
STARTCHAR 0055
ENCODING 85
SWIDTH 675 0
DWIDTH 45 0
BBX 37 46 4 -1
BITMAP
FFE0003FF8
FFE0003FF8
FFE0003FF8
FFE0003FF8
FFE0003FF8
FFE0003FF8
FFE0003FF8
FFE0003FF8
FFE0003FF8
FFE0003FF8
FFE0003FF8
FFE0003FF8
FFE0003FF8
FFE0003FF8
FFE0003FF8
FFE0003FF8
FFE0003FF8
FFE0003FF8
FFE0003FF8
FFE0003FF8
FFE0003FF8
FFE0003FF8
FFE0003FF8
FFE0003FF8
FFE0003FF8
FFE0003FF8
FFE0003FF8
FFE0003FF8
FFE0003FF8
FFE0003FF8
FFE0003FF8
FFE0003FF8
FFE0003FF8
FFE0003FF8
FFE0003FF8
FFF0007FF8
7FF800FFF0
7FFF07FFF0
3FFFFFFFE0
3FFFFFFFE0
1FFFFFFFC0
07FFFFFF00
03FFFFFE00
00FFFFF800
003FFFE000
0003FE0000
ENDCHAR
STARTCHAR 0056
ENCODING 86
SWIDTH 645 0
DWIDTH 43 0
BBX 49 46 -3 -1
BITMAP
FFF0000007FF80
7FF0000007FF00
7FF800000FFF00
3FF800000FFE00
3FF800001FFE00
3FFC00001FFE00
1FFC00001FFC00
1FFE00003FFC00
0FFE00003FF800
0FFE00007FF800
0FFF00007FF000
07FF00007FF000
07FF8000FFF000
03FF8000FFE000
03FF8001FFE000
03FFC001FFC000
01FFC001FFC000
01FFE003FFC000
00FFE003FF8000
00FFF007FF8000
007FF007FF0000
007FF007FF0000
007FF80FFF0000
003FF80FFE0000
003FFC1FFE0000
001FFC1FFC0000
001FFC3FFC0000
001FFE3FFC0000
000FFE3FF80000
000FFF7FF80000
0007FF7FF00000
0007FFFFF00000
0007FFFFE00000
0003FFFFE00000
0003FFFFE00000
0001FFFFC00000
0001FFFFC00000
0000FFFF800000
0000FFFF800000
0000FFFF800000
00007FFF000000
00007FFF000000
00003FFE000000
00001FFC000000
00000FF8000000
000003E0000000
ENDCHAR
STARTCHAR 0057
ENCODING 87
SWIDTH 1095 0
DWIDTH 73 0
BBX 79 46 -3 -1
BITMAP
FFF0000007C000001FFE
7FF000001FF000001FFC
7FF800007FFC00001FFC
3FF800007FFC00003FFC
3FF80000FFFE00003FF8
3FFC0000FFFE00007FF8
1FFC0000FFFF00007FF0
1FFE0001FFFF0000FFF0
0FFE0001FFFF0000FFE0
0FFE0001FFFF0000FFE0
0FFF0003FFFF8001FFE0
07FF0003FFFF8001FFC0
07FF8003FFFF8003FFC0
03FF8003FFFFC003FF80
03FF8007FFFFC003FF80
03FFC007FEFFC007FF80
01FFC007FEFFC007FF00
01FFE00FFEFFE00FFF00
00FFE00FFE7FE00FFE00
00FFF00FFC7FE00FFE00
007FF00FFC7FF01FFE00
007FF01FFC3FF01FFC00
007FF81FF83FF03FFC00
003FF81FF83FF03FF800
003FFC3FF83FF83FF800
001FFC3FF81FF87FF800
001FFC3FF01FF87FF000
001FFE3FF01FFCFFF000
000FFE7FF00FFCFFE000
000FFF7FE00FFDFFE000
0007FF7FE00FFFFFE000
0007FFFFE00FFFFFC000
0007FFFFE007FFFFC000
0003FFFFC007FFFF8000
0003FFFFC007FFFF8000
0001FFFFC003FFFF0000
0001FFFF8003FFFF0000
0000FFFF8003FFFF0000
0000FFFF8003FFFE0000
0000FFFF0001FFFE0000
00007FFF0001FFFC0000
00007FFF0001FFFC0000
00003FFE0000FFF80000
00001FFE00007FF80000
00000FF800003FE00000
000003E000000F800000
ENDCHAR
STARTCHAR 0058
ENCODING 88
SWIDTH 660 0
DWIDTH 44 0
BBX 46 46 -1 -1
BITMAP
FFF800007FFC
7FFC0000FFF8
3FFE0000FFF0
3FFE0001FFF0
1FFF0003FFE0
0FFF8007FFC0
07FF8007FF80
07FFC00FFF80
03FFE01FFF00
01FFF03FFE00
00FFF03FFE00
00FFF87FFC00
007FFCFFF800
003FFEFFF000
003FFFFFF000
001FFFFFE000
000FFFFFC000
0007FFFF8000
0007FFFF8000
0003FFFF0000
0001FFFE0000
0000FFFE0000
0000FFFC0000
0000FFFC0000
0000FFFE0000
0001FFFE0000
0003FFFF0000
0007FFFF8000
0007FFFF8000
000FFFFFC000
001FFFFFE000
003FFFFFF000
003FFEFFF000
007FFCFFF800
00FFF87FFC00
00FFF03FFE00
01FFF03FFE00
03FFE01FFF00
07FFC00FFF80
07FF8007FF80
0FFF8007FFC0
1FFF0003FFE0
3FFE0001FFF0
3FFE0000FFF0
7FFC0000FFF8
FFF800007FFC
ENDCHAR
STARTCHAR 0059
ENCODING 89
SWIDTH 615 0
DWIDTH 41 0
BBX 45 46 -2 -1
BITMAP
FFF800007FF8
FFF80000FFF8
7FFC0001FFF0
3FFE0003FFE0
1FFE0003FFC0
1FFF0007FFC0
0FFF800FFF80
07FFC01FFF00
03FFC01FFF00
03FFE03FFE00
01FFF07FFC00
00FFF87FF800
00FFF8FFF800
007FFDFFF000
003FFFFFE000
001FFFFFC000
001FFFFFC000
000FFFFF8000
0007FFFF0000
0003FFFF0000
0003FFFE0000
0001FFFC0000
0000FFF80000
0000FFF80000
00007FF00000
00007FF00000
00007FF00000
00007FF00000
00007FF00000
00007FF00000
00007FF00000
00007FF00000
00007FF00000
00007FF00000
00007FF00000
00007FF00000
00007FF00000
00007FF00000
00007FF00000
00007FF00000
00007FF00000
00007FF00000
00007FF00000
00007FF00000
00007FF00000
00007FF00000
ENDCHAR
STARTCHAR 005A
ENCODING 90
SWIDTH 675 0
DWIDTH 45 0
BBX 37 46 4 -1
BITMAP
FFFFFFFF80
FFFFFFFFE0
FFFFFFFFF0
FFFFFFFFF8
FFFFFFFFF8
FFFFFFFFF8
FFFFFFFFF8
FFFFFFFFF0
000003FFF0
000007FFE0
000007FFC0
00000FFFC0
00001FFF80
00003FFF00
00003FFE00
00007FFE00
0000FFFC00
0000FFF800
0001FFF800
0003FFF000
0007FFE000
0007FFC000
000FFFC000
001FFF8000
001FFF0000
003FFF0000
007FFE0000
00FFFC0000
00FFF80000
01FFF80000
03FFF00000
03FFE00000
07FFE00000
0FFFC00000
1FFF800000
1FFF000000
3FFF000000
7FFE000000
7FFFFFFFF8
FFFFFFFFF8
FFFFFFFFF8
FFFFFFFFF8
FFFFFFFFF8
7FFFFFFFF8
3FFFFFFFF8
0FFFFFFFF8
ENDCHAR
STARTCHAR 005B
ENCODING 91
SWIDTH 405 0
DWIDTH 27 0
BBX 19 57 4 -6
BITMAP
0FFFE0
3FFFE0
7FFFE0
FFFFE0
FFFFE0
FFFFE0
FFFFE0
FFFFE0
FFE000
FFE000
FFE000
FFE000
FFE000
FFE000
FFE000
FFE000
FFE000
FFE000
FFE000
FFE000
FFE000
FFE000
FFE000
FFE000
FFE000
FFE000
FFE000
FFE000
FFE000
FFE000
FFE000
FFE000
FFE000
FFE000
FFE000
FFE000
FFE000
FFE000
FFE000
FFE000
FFE000
FFE000
FFE000
FFE000
FFE000
FFE000
FFE000
FFE000
FFE000
FFFFE0
FFFFE0
FFFFE0
FFFFE0
FFFFE0
7FFFE0
3FFFE0
0FFFE0
ENDCHAR
STARTCHAR 005C
ENCODING 92
SWIDTH 555 0
DWIDTH 37 0
BBX 39 55 -1 -6
BITMAP
0060000000
07E0000000
FFF0000000
7FF0000000
7FF8000000
3FF8000000
3FFC000000
1FFE000000
1FFE000000
0FFF000000
0FFF000000
07FF800000
03FF800000
03FFC00000
01FFC00000
01FFE00000
00FFE00000
00FFF00000
007FF00000
007FF80000
003FFC0000
003FFC0000
001FFE0000
001FFE0000
000FFF0000
000FFF0000
0007FF8000
0003FF8000
0003FFC000
0001FFC000
0001FFE000
0000FFE000
0000FFF000
00007FF000
00007FF800
00003FFC00
00003FFC00
00001FFE00
00001FFE00
00000FFF00
000007FF00
000007FF80
000003FF80
000003FFC0
000001FFC0
000001FFE0
000000FFE0
000000FFF0
0000007FF8
0000007FF8
0000003FFC
0000003FFC
0000001FFE
0000000FF8
0000000F80
ENDCHAR
STARTCHAR 005D
ENCODING 93
SWIDTH 405 0
DWIDTH 27 0
BBX 19 57 4 -6
BITMAP
FFFE00
FFFF80
FFFFC0
FFFFE0
FFFFE0
FFFFE0
FFFFE0
FFFFE0
00FFE0
00FFE0
00FFE0
00FFE0
00FFE0
00FFE0
00FFE0
00FFE0
00FFE0
00FFE0
00FFE0
00FFE0
00FFE0
00FFE0
00FFE0
00FFE0
00FFE0
00FFE0
00FFE0
00FFE0
00FFE0
00FFE0
00FFE0
00FFE0
00FFE0
00FFE0
00FFE0
00FFE0
00FFE0
00FFE0
00FFE0
00FFE0
00FFE0
00FFE0
00FFE0
00FFE0
00FFE0
00FFE0
00FFE0
00FFE0
00FFE0
FFFFE0
FFFFE0
FFFFE0
FFFFE0
FFFFE0
FFFFC0
FFFF80
FFFE00
ENDCHAR
STARTCHAR 005F
ENCODING 95
SWIDTH 615 0
DWIDTH 41 0
BBX 45 6 -2 -8
BITMAP
FFFFFFFFFFF8
FFFFFFFFFFF8
FFFFFFFFFFF8
FFFFFFFFFFF8
FFFFFFFFFFF8
FFFFFFFFFFF8
ENDCHAR
STARTCHAR 0061
ENCODING 97
SWIDTH 495 0
DWIDTH 33 0
BBX 39 37 -3 -1
BITMAP
00007C0000
0001FF0000
0003FF8000
0003FFC000
0007FFC000
0007FFC000
0007FFE000
000FFFE000
000FFFF000
001FFFF000
001FFFF000
001FFFF800
003FFFF800
003FEFFC00
007FE7FC00
007FC7FE00
007FC3FE00
00FFC3FE00
00FF83FF00
01FF81FF00
01FF01FF80
03FF00FF80
03FF00FF80
03FFFFFFC0
07FFFFFFC0
07FFFFFFE0
0FFFFFFFE0
0FFFFFFFE0
0FFFFFFFF0
1FF8001FF0
1FF0001FF8
3FF0000FF8
3FE0000FFC
3FE00007FC
7FE00007FC
7FC00007FE
FFC00003FE
ENDCHAR
STARTCHAR 0062
ENCODING 98
SWIDTH 585 0
DWIDTH 39 0
BBX 33 37 4 -1
BITMAP
1FFFE00000
7FFFFC0000
FFFFFF8000
FFFFFFC000
FFFFFFE000
FFFFFFF000
FF80FFF800
FF801FF800
FF800FFC00
FF8007FC00
FF8007FC00
FF8007FC00
FF800FF800
FF801FF800
FF80FFF000
FF8FFFE000
FFFFFFC000
FFFFFF8000
FFFFFFF000
FFFFFFF800
FFFFFFFC00
FFFFFFFE00
FF801FFF00
FF8003FF00
FF8001FF80
FF8000FF80
FF8000FF80
FF8000FF80
FF8001FF80
FF8003FF00
FF801FFF00
FFFFFFFE00
FFFFFFFC00
FFFFFFF800
FFFFFFE000
7FFFFF8000
1FFFFC0000
ENDCHAR
STARTCHAR 0063
ENCODING 99
SWIDTH 555 0
DWIDTH 37 0
BBX 30 37 4 -1
BITMAP
001FE000
00FFFC00
03FFFF00
0FFFFFC0
1FFFFFE0
3FFFFFF0
7FFDFFF0
7FE01FF8
FFC00FF8
FF800FFC
FF8007FC
FF800000
FF800000
FF800000
FF800000
FF800000
FF800000
FF800000
FF800000
FF800000
FF800000
FF800000
FF800000
FF800000
FF800000
FF800000
FF8007FC
FF800FFC
FFC00FF8
7FE01FF8
7FFDFFF8
3FFFFFF0
1FFFFFE0
0FFFFFC0
03FFFF00
00FFFC00
001FE000
ENDCHAR
STARTCHAR 0064
ENCODING 100
SWIDTH 555 0
DWIDTH 37 0
BBX 30 37 4 -1
BITMAP
FFFFE000
FFFFFC00
FFFFFF00
FFFFFFC0
FFFFFFE0
FFFFFFF0
FF80FFF8
FF801FF8
FF800FFC
FF8007FC
FF8007FC
FF8007FC
FF8007FC
FF8007FC
FF8007FC
FF8007FC
FF8007FC
FF8007FC
FF8007FC
FF8007FC
FF8007FC
FF8007FC
FF8007FC
FF8007FC
FF8007FC
FF8007FC
FF8007FC
FF8007FC
FF800FFC
FF801FF8
FF80FFF8
FFFFFFF0
FFFFFFE0
FFFFFFC0
FFFFFF00
FFFFFC00
FFFFE000
ENDCHAR
STARTCHAR 0065
ENCODING 101
SWIDTH 510 0
DWIDTH 34 0
BBX 27 37 4 -1
BITMAP
1FFFFFE0
7FFFFFE0
FFFFFFE0
FFFFFFE0
FFFFFFE0
FFFFFFE0
FF800000
FF800000
FF800000
FF800000
FF800000
FF800000
FF800000
FF800000
FF800000
FF800000
FFFFF000
FFFFF000
FFFFF000
FFFFF000
FFFFF000
FFFFF000
FF800000
FF800000
FF800000
FF800000
FF800000
FF800000
FF800000
FF800000
FF800000
FFFFFFE0
FFFFFFE0
FFFFFFE0
FFFFFFE0
7FFFFFE0
1FFFFFE0
ENDCHAR
STARTCHAR 0066
ENCODING 102
SWIDTH 480 0
DWIDTH 32 0
BBX 27 37 4 -1
BITMAP
1FFFFFE0
7FFFFFE0
FFFFFFE0
FFFFFFE0
FFFFFFE0
FFFFFFE0
FF800000
FF800000
FF800000
FF800000
FF800000
FF800000
FF800000
FF800000
FF800000
FF800000
FFFFF000
FFFFF000
FFFFF000
FFFFF000
FFFFF000
FFFFF000
FF800000
FF800000
FF800000
FF800000
FF800000
FF800000
FF800000
FF800000
FF800000
FF800000
FF800000
FF800000
FF800000
FF800000
FF800000
ENDCHAR
STARTCHAR 0067
ENCODING 103
SWIDTH 555 0
DWIDTH 37 0
BBX 30 37 4 -1
BITMAP
001FE000
00FFFC00
03FFFF00
0FFFFFC0
1FFFFFE0
3FFFFFF0
7FFDFFF8
7FE01FF8
FFC00FFC
FF8007FC
FF8007FC
FF800000
FF800000
FF800000
FF800000
FF800000
FF83FFF0
FF83FFF8
FF83FFFC
FF83FFFC
FF83FFFC
FF83FFFC
FF8007FC
FF8007FC
FF8007FC
FF8007FC
FF8007FC
FF8007FC
FFC00FFC
7FE01FFC
7FFCFFFC
3FFFFFFC
1FFFFFFC
0FFFFFFC
03FFFFFC
00FFFFFC
001FF7FC
ENDCHAR
STARTCHAR 0068
ENCODING 104
SWIDTH 555 0
DWIDTH 37 0
BBX 30 37 4 -1
BITMAP
FF8007FC
FF8007FC
FF8007FC
FF8007FC
FF8007FC
FF8007FC
FF8007FC
FF8007FC
FF8007FC
FF8007FC
FF8007FC
FF8007FC
FF8007FC
FF8007FC
FF8007FC
FF8007FC
FFFFFFFC
FFFFFFFC
FFFFFFFC
FFFFFFFC
FFFFFFFC
FFFFFFFC
FF8007FC
FF8007FC
FF8007FC
FF8007FC
FF8007FC
FF8007FC
FF8007FC
FF8007FC
FF8007FC
FF8007FC
FF8007FC
FF8007FC
FF8007FC
FF8007FC
FF8007FC
ENDCHAR
STARTCHAR 0069
ENCODING 105
SWIDTH 240 0
DWIDTH 16 0
BBX 9 37 4 -1
BITMAP
FF80
FF80
FF80
FF80
FF80
FF80
FF80
FF80
FF80
FF80
FF80
FF80
FF80
FF80
FF80
FF80
FF80
FF80
FF80
FF80
FF80
FF80
FF80
FF80
FF80
FF80
FF80
FF80
FF80
FF80
FF80
FF80
FF80
FF80
FF80
FF80
FF80
ENDCHAR
STARTCHAR 006A
ENCODING 106
SWIDTH 510 0
DWIDTH 34 0
BBX 30 37 1 -1
BITMAP
000007FC
000007FC
000007FC
000007FC
000007FC
000007FC
000007FC
000007FC
000007FC
000007FC
000007FC
000007FC
000007FC
000007FC
000007FC
000007FC
000007FC
000007FC
000007FC
000007FC
000007FC
000007FC
000007FC
FF8007FC
FF8007FC
FF8007FC
FF8007FC
FF8007FC
FFC00FFC
FFE01FF8
7FFCFFF8
3FFFFFF0
1FFFFFE0
0FFFFFC0
07FFFF00
01FFFC00
001FE000
ENDCHAR
STARTCHAR 006B
ENCODING 107
SWIDTH 525 0
DWIDTH 35 0
BBX 30 37 4 -1
BITMAP
FF800FFC
FF801FF8
FF801FF8
FF803FF0
FF807FE0
FF807FE0
FF80FFC0
FF81FF80
FF83FF80
FF83FF00
FF87FE00
FF8FFC00
FF9FFC00
FF9FF800
FFBFF000
FFFFF000
FFFFE000
FFFFC000
FFFFC000
FFFFC000
FFFFE000
FFBFF000
FF9FF000
FF9FF800
FF8FFC00
FF87FC00
FF87FE00
FF83FF00
FF81FF80
FF81FF80
FF80FFC0
FF807FE0
FF803FE0
FF803FF0
FF801FF8
FF800FF8
FF800FFC
ENDCHAR
STARTCHAR 006C
ENCODING 108
SWIDTH 480 0
DWIDTH 32 0
BBX 27 37 4 -1
BITMAP
FF800000
FF800000
FF800000
FF800000
FF800000
FF800000
FF800000
FF800000
FF800000
FF800000
FF800000
FF800000
FF800000
FF800000
FF800000
FF800000
FF800000
FF800000
FF800000
FF800000
FF800000
FF800000
FF800000
FF800000
FF800000
FF800000
FF800000
FF800000
FF800000
FF800000
FF800000
FFFFFFE0
FFFFFFE0
FFFFFFE0
FFFFFFE0
7FFFFFE0
1FFFFFE0
ENDCHAR
STARTCHAR 006D
ENCODING 109
SWIDTH 780 0
DWIDTH 52 0
BBX 45 37 4 -1
BITMAP
1F00000007C0
7F8000000FF0
FFC000001FF0
FFE000003FF8
FFE000003FF8
FFF000007FF8
FFF000007FF8
FFF80000FFF8
FFF80001FFF8
FFFC0001FFF8
FFFC0003FFF8
FFFE0003FFF8
FFFF0007FFF8
FFFF0007FFF8
FFFF800FFFF8
FFFF800FFFF8
FFFFC01FFFF8
FFFFC01FFFF8
FFFFE03FFFF8
FFBFE03FEFF8
FFBFF07FEFF8
FF9FF07FCFF8
FF9FF8FFCFF8
FF8FF8FF8FF8
FF8FFDFF8FF8
FF87FDFF0FF8
FF87FFFF0FF8
FF83FFFE0FF8
FF83FFFE0FF8
FF81FFFC0FF8
FF81FFFC0FF8
FF80FFF80FF8
FF80FFF80FF8
FF807FF00FF8
FF803FE00FF8
FF803FC00FF8
FF800F800FF8
ENDCHAR
STARTCHAR 006E
ENCODING 110
SWIDTH 555 0
DWIDTH 37 0
BBX 30 37 4 -1
BITMAP
1F0007FC
7F8007FC
FFC007FC
FFE007FC
FFE007FC
FFF007FC
FFF807FC
FFF807FC
FFFC07FC
FFFC07FC
FFFE07FC
FFFF07FC
FFFF07FC
FFFF87FC
FFFF87FC
FFFFC7FC
FFFFE7FC
FFFFE7FC
FFBFF7FC
FF9FF7FC
FF9FFFFC
FF8FFFFC
FF8FFFFC
FF87FFFC
FF83FFFC
FF83FFFC
FF81FFFC
FF80FFFC
FF80FFFC
FF807FFC
FF807FFC
FF803FFC
FF801FFC
FF801FFC
FF800FF8
FF8007F8
FF8003E0
ENDCHAR
STARTCHAR 006F
ENCODING 111
SWIDTH 480 0
DWIDTH 32 0
BBX 30 37 1 -1
BITMAP
001FE000
00FFFC00
03FFFF00
0FFFFFC0
1FFFFFE0
3FFFFFF0
7FFCFFF8
7FE01FF8
FFC00FFC
FF8007FC
FF8007FC
FF8007FC
FF8007FC
FF8007FC
FF8007FC
FF8007FC
FF8007FC
FF8007FC
FF8007FC
FF8007FC
FF8007FC
FF8007FC
FF8007FC
FF8007FC
FF8007FC
FF8007FC
FF8007FC
FF8007FC
FFC00FFC
7FE01FF8
7FFCFFF8
3FFFFFF0
1FFFFFE0
0FFFFFC0
03FFFF00
00FFFC00
001FE000
ENDCHAR
STARTCHAR 0070
ENCODING 112
SWIDTH 555 0
DWIDTH 37 0
BBX 31 37 4 -1
BITMAP
1FFFF000
7FFFFF00
FFFFFFC0
FFFFFFE0
FFFFFFF8
FFFFFFF8
FF807FFC
FF800FFE
FF8007FE
FF8003FE
FF8003FE
FF8003FE
FF8007FE
FF800FFC
FF807FF8
FF87FFF8
FFFFFFE0
FFFFFFC0
FFFFFF00
FFFFFC00
FFFFE000
FFFE0000
FF800000
FF800000
FF800000
FF800000
FF800000
FF800000
FF800000
FF800000
FF800000
FF800000
FF800000
FF800000
FF800000
FF800000
FF800000
ENDCHAR
STARTCHAR 0071
ENCODING 113
SWIDTH 510 0
DWIDTH 34 0
BBX 31 40 1 -5
BITMAP
001FE000
00FFFC00
03FFFF00
0FFFFFC0
1FFFFFE0
3FFFFFF0
7FFCFFF8
7FE01FF8
FFC00FFC
FF8007FC
FF8007FC
FF8007FC
FF8007FC
FF8007FC
FF8007FC
FF8007FC
FF8007FC
FF8007FC
FF8007FC
FF8007FC
FF8007FC
FF8007FC
FF8007FC
FF8007FC
FF8007FC
FF8007FC
FF8007FC
FF8007FC
FFC00FFC
7FE01FF8
7FFFFFF8
3FFFFFF0
1FFFFFE0
0FFFFFF0
03FFFFFE
00FFFFFE
001FFFFC
0000FFFC
00000FF8
00000078
ENDCHAR
STARTCHAR 0072
ENCODING 114
SWIDTH 570 0
DWIDTH 38 0
BBX 33 37 4 -1
BITMAP
1FFFF00000
7FFFFE0000
FFFFFFC000
FFFFFFE000
FFFFFFF000
FFFFFFF800
FF807FFC00
FF800FFE00
FF8007FE00
FF8003FE00
FF8003FE00
FF8003FE00
FF8007FE00
FF800FFC00
FF807FFC00
FF81FFF800
FF8FFFF000
FF9FFFE000
FFBFFF8000
FFFFFE0000
FFFFF80000
FFFFE00000
FFFFF00000
FFBFF80000
FF9FFC0000
FF8FFE0000
FF87FE0000
FF87FF0000
FF83FF8000
FF81FFC000
FF80FFE000
FF807FF000
FF803FF800
FF801FFC00
FF800FFE00
FF8007FF00
FF8003FF80
ENDCHAR
STARTCHAR 0073
ENCODING 115
SWIDTH 555 0
DWIDTH 37 0
BBX 30 37 4 -1
BITMAP
001FE000
00FFFC00
03FFFF00
0FFFFFC0
1FFFFFE0
3FFFFFF0
7FFDFFF8
7FE01FF8
FFC00FFC
FF8007FC
FF8007FC
FF800000
FF800000
FFC00000
7FE00000
7FFC0000
3FFFF800
1FFFFE00
0FFFFF80
03FFFFC0
00FFFFE0
001FFFF0
00003FF8
00000FF8
000007FC
000007FC
FF8007FC
FF8007FC
FFC00FFC
7FE01FF8
7FFDFFF8
3FFFFFF0
1FFFFFE0
0FFFFFC0
07FFFF00
01FFFC00
001FE000
ENDCHAR
STARTCHAR 0074
ENCODING 116
SWIDTH 450 0
DWIDTH 30 0
BBX 30 37 0 -1
BITMAP
FFFFFFFC
FFFFFFFC
FFFFFFFC
FFFFFFFC
FFFFFFFC
FFFFFFFC
003FE000
003FE000
003FE000
003FE000
003FE000
003FE000
003FE000
003FE000
003FE000
003FE000
003FE000
003FE000
003FE000
003FE000
003FE000
003FE000
003FE000
003FE000
003FE000
003FE000
003FE000
003FE000
003FE000
003FE000
003FE000
003FE000
003FE000
003FE000
003FE000
003FE000
003FE000
ENDCHAR
STARTCHAR 0075
ENCODING 117
SWIDTH 555 0
DWIDTH 37 0
BBX 30 37 4 -1
BITMAP
FF8007FC
FF8007FC
FF8007FC
FF8007FC
FF8007FC
FF8007FC
FF8007FC
FF8007FC
FF8007FC
FF8007FC
FF8007FC
FF8007FC
FF8007FC
FF8007FC
FF8007FC
FF8007FC
FF8007FC
FF8007FC
FF8007FC
FF8007FC
FF8007FC
FF8007FC
FF8007FC
FF8007FC
FF8007FC
FF8007FC
FF8007FC
FF8007FC
FFC00FFC
7FE01FF8
7FFCFFF8
3FFFFFF0
1FFFFFE0
0FFFFFC0
03FFFF00
00FFFC00
001FE000
ENDCHAR
STARTCHAR 0076
ENCODING 118
SWIDTH 495 0
DWIDTH 33 0
BBX 39 37 -3 -1
BITMAP
FFC00003FE
7FC00007FE
7FE00007FC
3FE00007FC
3FE0000FFC
3FF0000FF8
1FF0001FF8
1FF8001FF0
0FF8001FF0
0FF8003FE0
0FFC003FE0
07FC007FE0
07FE007FC0
03FE00FFC0
03FE00FF80
03FF00FF80
01FF01FF80
01FF81FF00
00FF83FF00
00FFC3FE00
007FC3FE00
007FC7FE00
007FE7FC00
003FEFFC00
003FFFF800
001FFFF800
001FFFF800
001FFFF000
000FFFF000
000FFFE000
0007FFE000
0007FFC000
0007FFC000
0003FFC000
0003FF8000
0001FF0000
00007E0000
ENDCHAR
STARTCHAR 0077
ENCODING 119
SWIDTH 870 0
DWIDTH 58 0
BBX 63 37 -3 -1
BITMAP
FFC00007C00003FE
7FC0001FF00003FE
7FE0003FF80007FE
3FE0003FFC0007FC
3FE0003FFC000FFC
3FF0007FFC000FF8
1FF0007FFE001FF8
1FF8007FFE001FF0
0FF800FFFE001FF0
0FF800FFFF003FF0
0FFC00FFFF003FE0
07FC00FFFF007FE0
07FE01FFFF007FC0
03FE01FFFF807FC0
03FE01FEFF80FFC0
03FF03FE7F80FF80
01FF03FE7FC1FF80
01FF83FC7FC1FF00
00FF87FC3FC1FF00
00FF87FC3FC3FF00
007FC7FC3FE3FE00
007FC7F83FE7FE00
007FEFF81FE7FC00
003FEFF81FF7FC00
003FFFF01FFFFC00
001FFFF00FFFF800
001FFFF00FFFF800
001FFFE00FFFF000
000FFFE007FFF000
000FFFE007FFE000
0007FFE007FFE000
0007FFC007FFE000
0007FFC003FFC000
0003FFC003FFC000
0003FF8001FF8000
0001FF0000FF0000
00007C00007E0000
ENDCHAR
STARTCHAR 0078
ENCODING 120
SWIDTH 525 0
DWIDTH 35 0
BBX 37 37 -1 -1
BITMAP
FFE0003FF8
7FF0003FF0
3FF0007FF0
3FF800FFE0
1FFC00FFC0
0FFC01FF80
07FE03FF80
07FF07FF00
03FF87FE00
01FF8FFC00
00FFDFFC00
00FFFFF800
007FFFF000
003FFFF000
003FFFE000
001FFFC000
000FFF8000
0007FF8000
0007FF0000
0007FF8000
000FFF8000
001FFFC000
003FFFE000
003FFFF000
007FFFF000
00FFFFF800
00FFDFFC00
01FF8FFC00
03FF87FE00
07FF07FF00
07FE03FF80
0FFC01FF80
1FFC00FFC0
3FF800FFE0
3FF0007FF0
7FF0003FF0
FFE0003FF8
ENDCHAR
STARTCHAR 0079
ENCODING 121
SWIDTH 465 0
DWIDTH 31 0
BBX 37 37 -3 -1
BITMAP
FFE0003FF8
7FE0003FF0
3FF0007FE0
3FF800FFE0
1FFC01FFC0
0FFC01FF80
0FFE03FF80
07FF07FF00
03FF0FFE00
01FF8FFC00
01FFDFFC00
00FFFFF800
007FFFF000
003FFFE000
003FFFE000
001FFFC000
000FFF8000
0007FF0000
0007FF0000
0003FE0000
0003FE0000
0003FE0000
0003FE0000
0003FE0000
0003FE0000
0003FE0000
0003FE0000
0003FE0000
0003FE0000
0003FE0000
0003FE0000
0003FE0000
0003FE0000
0003FE0000
0003FE0000
0003FE0000
0003FE0000
ENDCHAR
STARTCHAR 007A
ENCODING 122
SWIDTH 570 0
DWIDTH 38 0
BBX 30 37 4 -1
BITMAP
FFFFFFE0
FFFFFFF8
FFFFFFFC
FFFFFFFC
FFFFFFFC
FFFFFFFC
00003FF8
00007FF0
00007FF0
0000FFE0
0001FFC0
0003FFC0
0003FF80
0007FF00
000FFE00
000FFE00
001FFC00
003FF800
007FF800
007FF000
00FFE000
01FFC000
01FFC000
03FF8000
07FF0000
0FFF0000
0FFE0000
1FFC0000
3FF80000
3FF80000
7FF00000
FFFFFFFC
FFFFFFFC
FFFFFFFC
FFFFFFFC
7FFFFFFC
1FFFFFFC
ENDCHAR
STARTCHAR 007B
ENCODING 123
SWIDTH 405 0
DWIDTH 27 0
BBX 19 57 4 -6
BITMAP
0FFFE0
3FFFE0
7FFFE0
FFFFE0
FFFFE0
FFFFE0
FFFFE0
FFFFE0
FFE000
FFE000
FFE000
FFE000
FFE000
FFE000
FFE000
FFE000
FFE000
FFE000
FFE000
FFE000
FFE000
FFE000
FFE000
FFE000
FFE000
FFE000
FFE000
FFE000
FFE000
FFE000
FFE000
FFE000
FFE000
FFE000
FFE000
FFE000
FFE000
FFE000
FFE000
FFE000
FFE000
FFE000
FFE000
FFE000
FFE000
FFE000
FFE000
FFE000
FFE000
FFFFE0
FFFFE0
FFFFE0
FFFFE0
FFFFE0
7FFFE0
3FFFE0
0FFFE0
ENDCHAR
STARTCHAR 007C
ENCODING 124
SWIDTH 285 0
DWIDTH 19 0
BBX 11 57 4 -6
BITMAP
FFE0
FFE0
FFE0
FFE0
FFE0
FFE0
FFE0
FFE0
FFE0
FFE0
FFE0
FFE0
FFE0
FFE0
FFE0
FFE0
FFE0
FFE0
FFE0
FFE0
FFE0
FFE0
FFE0
FFE0
FFE0
FFE0
FFE0
FFE0
FFE0
FFE0
FFE0
FFE0
FFE0
FFE0
FFE0
FFE0
FFE0
FFE0
FFE0
FFE0
FFE0
FFE0
FFE0
FFE0
FFE0
FFE0
FFE0
FFE0
FFE0
FFE0
FFE0
FFE0
FFE0
FFE0
FFE0
FFE0
FFE0
ENDCHAR
STARTCHAR 007D
ENCODING 125
SWIDTH 405 0
DWIDTH 27 0
BBX 19 57 4 -6
BITMAP
FFFE00
FFFF80
FFFFC0
FFFFE0
FFFFE0
FFFFE0
FFFFE0
FFFFE0
00FFE0
00FFE0
00FFE0
00FFE0
00FFE0
00FFE0
00FFE0
00FFE0
00FFE0
00FFE0
00FFE0
00FFE0
00FFE0
00FFE0
00FFE0
00FFE0
00FFE0
00FFE0
00FFE0
00FFE0
00FFE0
00FFE0
00FFE0
00FFE0
00FFE0
00FFE0
00FFE0
00FFE0
00FFE0
00FFE0
00FFE0
00FFE0
00FFE0
00FFE0
00FFE0
00FFE0
00FFE0
00FFE0
00FFE0
00FFE0
00FFE0
FFFFE0
FFFFE0
FFFFE0
FFFFE0
FFFFE0
FFFFC0
FFFF80
FFFE00
ENDCHAR
STARTCHAR 00A1
ENCODING 161
SWIDTH 285 0
DWIDTH 19 0
BBX 11 46 4 -1
BITMAP
FFE0
FFE0
FFE0
FFE0
FFE0
FFE0
FFE0
FFE0
0000
0000
FFE0
FFE0
FFE0
FFE0
FFE0
FFE0
FFE0
FFE0
FFE0
FFE0
FFE0
FFE0
FFE0
FFE0
FFE0
FFE0
FFE0
FFE0
FFE0
FFE0
FFE0
FFE0
FFE0
FFE0
FFE0
FFE0
FFE0
FFE0
FFE0
FFE0
FFE0
FFE0
FFE0
FFE0
FFE0
FFE0
ENDCHAR
STARTCHAR 00A2
ENCODING 162
SWIDTH 555 0
DWIDTH 37 0
BBX 30 35 4 10
BITMAP
003FE000
003FE000
003FE000
003FE000
003FE000
007FF800
03FFFE00
07FFFF80
1FFFFFC0
3FFFFFE0
7FFFFFF0
7FF07FF8
FFC01FF8
FF800FFC
FF8007FC
FF800000
FF800000
FF800000
FF800000
FF8007FC
FF800FFC
FF800FF8
FFC01FF8
7FF07FF8
7FFFFFF0
3FFFFFE0
1FFFFFC0
07FFFF80
03FFFE00
00FFF800
003FE000
003FE000
003FE000
003FE000
003FE000
ENDCHAR
STARTCHAR 00BF
ENCODING 191
SWIDTH 675 0
DWIDTH 45 0
BBX 37 46 4 -1
BITMAP
0000003FF8
0000003FF8
0000003FF8
0000003FF8
0000003FF8
0000003FF8
0000003FF8
0000003FF8
0000000000
0000000000
0000003FF8
0000003FF8
0000003FF8
0000003FF8
0003FE3FF8
003FFFFFF8
00FFFFFFF8
03FFFFFFF8
07FFFFFFF8
1FFFFFFFF8
3FFFFFFFF8
3FFFFFFFF8
7FFF07FFF8
7FF801FFF8
FFF000FFF8
FFE0007FF8
FFE0003FF8
FFE0003FF8
FFE0000000
FFE0000000
FFE0000000
FFE0000000
FFE0000000
FFE0003FF8
FFE0003FF8
FFF0007FF8
7FF800FFF0
7FFE03FFF0
3FFFFFFFE0
3FFFFFFFE0
1FFFFFFFC0
07FFFFFF00
03FFFFFE00
00FFFFF800
003FFFE000
0003FE0000
ENDCHAR
STARTCHAR 2010
ENCODING 8208
SWIDTH 510 0
DWIDTH 34 0
BBX 26 6 4 20
BITMAP
FFFFFFC0
FFFFFFC0
FFFFFFC0
FFFFFFC0
FFFFFFC0
FFFFFFC0
ENDCHAR
STARTCHAR 2018
ENCODING 8216
SWIDTH 285 0
DWIDTH 19 0
BBX 11 15 4 31
BITMAP
0020
0060
01E0
03E0
0FC0
1F80
7F00
FFE0
FFE0
FFE0
FFE0
FFE0
FFE0
FFE0
FFE0
ENDCHAR
STARTCHAR 2019
ENCODING 8217
SWIDTH 285 0
DWIDTH 19 0
BBX 11 15 4 29
BITMAP
FFE0
FFE0
FFE0
FFE0
FFE0
FFE0
FFE0
FFE0
1FC0
3F00
7E00
F800
F000
C000
8000
ENDCHAR
STARTCHAR 201A
ENCODING 8218
SWIDTH 285 0
DWIDTH 19 0
BBX 11 15 4 -9
BITMAP
FFE0
FFE0
FFE0
FFE0
FFE0
FFE0
FFE0
FFE0
1FC0
3F00
7E00
F800
F000
C000
8000
ENDCHAR
STARTCHAR 201B
ENCODING 8219
SWIDTH 285 0
DWIDTH 19 0
BBX 11 15 4 29
BITMAP
FFE0
FFE0
FFE0
FFE0
FFE0
FFE0
FFE0
FFE0
7E00
1F80
0FC0
03E0
01E0
0060
0020
ENDCHAR
STARTCHAR 201C
ENCODING 8220
SWIDTH 480 0
DWIDTH 32 0
BBX 24 15 4 31
BITMAP
002001
006003
01E00F
03E01F
0FC07E
1F80FC
7F03F8
FFE7FF
FFE7FF
FFE7FF
FFE7FF
FFE7FF
FFE7FF
FFE7FF
FFE7FF
ENDCHAR
STARTCHAR 201D
ENCODING 8221
SWIDTH 480 0
DWIDTH 32 0
BBX 24 15 4 29
BITMAP
FFE7FF
FFE7FF
FFE7FF
FFE7FF
FFE7FF
FFE7FF
FFE7FF
FFE7FF
1FC0FE
3F01F8
7E03F0
F807C0
F00780
C00600
800400
ENDCHAR
STARTCHAR 201E
ENCODING 8222
SWIDTH 480 0
DWIDTH 32 0
BBX 24 15 4 -9
BITMAP
FFE7FF
FFE7FF
FFE7FF
FFE7FF
FFE7FF
FFE7FF
FFE7FF
FFE7FF
1FC0FE
3F01F8
7E03F0
F807C0
F00780
C00600
800400
ENDCHAR
ENDFONT
